<?xml version="1.0" encoding="UTF-8" standalone="no"?>
<svg
   xmlns:dc="http://purl.org/dc/elements/1.1/"
   xmlns:cc="http://creativecommons.org/ns#"
   xmlns:rdf="http://www.w3.org/1999/02/22-rdf-syntax-ns#"
   xmlns:svg="http://www.w3.org/2000/svg"
   xmlns="http://www.w3.org/2000/svg"
   xmlns:sodipodi="http://sodipodi.sourceforge.net/DTD/sodipodi-0.dtd"
   xmlns:inkscape="http://www.inkscape.org/namespaces/inkscape"
   width="60"
   height="60"
   viewBox="0 0 33 33"
   version="1.1"
   id="svg6"
   sodipodi:docname="2.svg"
   inkscape:version="0.92.1 r15371">
  <metadata
     id="metadata12">
    <rdf:RDF>
      <cc:Work
         rdf:about="">
        <dc:format>image/svg+xml</dc:format>
        <dc:type
           rdf:resource="http://purl.org/dc/dcmitype/StillImage" />
        <dc:title></dc:title>
      </cc:Work>
    </rdf:RDF>
  </metadata>
  <defs
     id="defs10" />
  <sodipodi:namedview
     pagecolor="#ffffff"
     bordercolor="#666666"
     borderopacity="1"
     objecttolerance="10"
     gridtolerance="10"
     guidetolerance="10"
     inkscape:pageopacity="0"
     inkscape:pageshadow="2"
     inkscape:window-width="1920"
     inkscape:window-height="1001"
     id="namedview8"
     showgrid="false"
     inkscape:zoom="0.98333334"
     inkscape:cx="-218.4478"
     inkscape:cy="17.99276"
     inkscape:window-x="-9"
     inkscape:window-y="-9"
     inkscape:window-maximized="1"
     inkscape:current-layer="svg6" />
  <g
     id="g4552"
     transform="matrix(0.05074174,0,0,0.05074174,29.79734,2.6399219)"
     style="fill:#ffbc29;fill-opacity:1">
    <g
       id="g4486"
       style="fill:#ffbc29;fill-opacity:1">
      <g
         id="g4484"
         style="fill:#ffbc29;fill-opacity:1">
        <path
           id="path4482"
           d="M -123.69348,132.77777 -247.37767,96.301059 c -9.60215,-2.832848 -19.7572,-2.832848 -29.36232,0 l -123.6827,36.475971 c -9.13161,2.69258 -15.50905,11.22155 -15.50905,20.74206 v 102.42929 c 0,47.40363 14.11081,93.04907 40.80726,132.00165 26.06339,38.03081 62.33527,67.28848 104.89032,84.60692 2.63618,1.07243 5.40594,1.60902 8.1757,1.60902 2.76977,0 5.53953,-0.53733 8.17496,-1.60902 42.55506,-17.31844 78.82694,-46.57462 104.89032,-84.60692 26.69571,-38.95333 40.80652,-84.59802 40.80652,-132.00165 V 153.51983 c 0.001,-9.52051 -6.37595,-18.05022 -15.50682,-20.74206 z m -1.79159,123.16987 c 0,43.89689 -13.06361,86.16028 -37.77699,122.22064 -24.14266,35.22765 -57.7331,62.32562 -97.14137,78.36308 -1.06723,0.43417 -2.24208,0.43417 -3.30932,0 -39.40827,-16.03746 -72.99944,-43.13468 -97.14136,-78.36308 -24.71339,-36.06036 -37.77699,-78.323 -37.77699,-122.22064 V 153.51909 c 0,-1.90366 1.27578,-3.60916 3.10225,-4.14797 l 123.68345,-36.47671 c 3.2017,-0.94478 6.49469,-1.41606 9.78768,-1.41606 3.29225,0 6.58524,0.47202 9.78695,1.4168 l 123.68493,36.47597 c 1.82499,0.53807 3.10077,2.24357 3.10077,4.14797 z"
           inkscape:connector-curvature="0"
           style="fill:#ffbc29;fill-opacity:1;stroke:#ffbc29;stroke-width:21.67840519;stroke-miterlimit:4;stroke-dasharray:none;stroke-opacity:1" />
      </g>
    </g>
    <g
       id="g4492"
       style="fill:#ffbc29;fill-opacity:1">
      <g
         id="g4490"
         style="fill:#ffbc29;fill-opacity:1" />
    </g>
    <g
       id="g4494"
       style="fill:#ffbc29;fill-opacity:1" />
    <g
       id="g4496"
       style="fill:#ffbc29;fill-opacity:1" />
    <g
       id="g4498"
       style="fill:#ffbc29;fill-opacity:1" />
    <g
       id="g4500"
       style="fill:#ffbc29;fill-opacity:1" />
    <g
       id="g4502"
       style="fill:#ffbc29;fill-opacity:1" />
    <g
       id="g4504"
       style="fill:#ffbc29;fill-opacity:1" />
    <g
       id="g4506"
       style="fill:#ffbc29;fill-opacity:1" />
    <g
       id="g4508"
       style="fill:#ffbc29;fill-opacity:1" />
    <g
       id="g4510"
       style="fill:#ffbc29;fill-opacity:1" />
    <g
       id="g4512"
       style="fill:#ffbc29;fill-opacity:1" />
    <g
       id="g4514"
       style="fill:#ffbc29;fill-opacity:1" />
    <g
       id="g4516"
       style="fill:#ffbc29;fill-opacity:1" />
    <g
       id="g4518"
       style="fill:#ffbc29;fill-opacity:1" />
    <g
       id="g4520"
       style="fill:#ffbc29;fill-opacity:1" />
    <g
       id="g4522"
       style="fill:#ffbc29;fill-opacity:1" />
  </g>
</svg>
