<?xml version="1.0" encoding="utf-8"?>
<!-- Generator: Adobe Illustrator 22.0.0, SVG Export Plug-In . SVG Version: 6.00 Build 0)  -->
<svg version="1.1"
	 id="svg12" inkscape:version="0.92.1 r15371" sodipodi:docname="5.svg" xmlns:cc="http://creativecommons.org/ns#" xmlns:dc="http://purl.org/dc/elements/1.1/" xmlns:inkscape="http://www.inkscape.org/namespaces/inkscape" xmlns:rdf="http://www.w3.org/1999/02/22-rdf-syntax-ns#" xmlns:sodipodi="http://sodipodi.sourceforge.net/DTD/sodipodi-0.dtd" xmlns:svg="http://www.w3.org/2000/svg"
	 xmlns="http://www.w3.org/2000/svg" xmlns:xlink="http://www.w3.org/1999/xlink" x="0px" y="0px" viewBox="0 0 60 60"
	 style="enable-background:new 0 0 60 60;" xml:space="preserve">
<style type="text/css">
	.st0{fill:#FFBC29;}
</style>
<sodipodi:namedview  bordercolor="#666666" borderopacity="1" gridtolerance="10" guidetolerance="10" id="namedview14" inkscape:current-layer="svg12" inkscape:cx="-3.6864407" inkscape:cy="30" inkscape:pageopacity="0" inkscape:pageshadow="2" inkscape:window-height="1001" inkscape:window-maximized="1" inkscape:window-width="1920" inkscape:window-x="-9" inkscape:window-y="-9" inkscape:zoom="3.9333333" objecttolerance="10" pagecolor="#ffffff" showgrid="false">
	</sodipodi:namedview>
<g id="g10" transform="matrix(1.413268,0,0,1.413268,-12.398039,-12.398039)">
	<g id="g4">
		<path id="path2" inkscape:connector-curvature="0" class="st0" d="M22.3,32.1c3.6,0,5.6-2.8,5.6-7c0-2.6-0.6-3.9-1.5-4.9
			c-1-1-2-1.4-3.7-1.4c-2.9,0-4.9,1.9-4.9,4.5c0,2.6,1.8,4.2,4.6,4.2c1.1,0,2-0.3,2.6-0.9c-0.2,1.7-1,2.9-2.6,2.9
			c-1.1,0-1.9-0.3-2.8-1.1l-1.5,2.1C19.2,31.5,20.5,32.1,22.3,32.1z M22.9,25.2c-1.4,0-2.2-0.8-2.2-1.9c0-1.2,0.8-2,2.2-2
			c1.4,0,2.2,0.8,2.2,2C25.1,24.4,24.3,25.2,22.9,25.2z M36.5,32.1c3.4,0,5.7-2.9,5.7-6.6c0-3.7-2.3-6.6-5.7-6.6
			c-3.4,0-5.7,2.9-5.7,6.6C30.8,29.2,33.1,32.1,36.5,32.1L36.5,32.1z M36.5,29.6c-1.7,0-2.8-1.7-2.8-4.1c0-2.4,1.1-4.1,2.8-4.1
			c1.7,0,2.8,1.8,2.8,4.1C39.3,27.8,38.2,29.6,36.5,29.6z"/>
	</g>
	<g id="g8">
		<path id="path6" inkscape:connector-curvature="0" class="st0" d="M17.8,41h2.4c1.9,0,3.3-1.3,3.3-3.1c0-1.7-1.3-3.1-3.3-3.1h-2.4
			V41z M19.2,39.8v-3.7h1c1.1,0,1.9,0.8,1.9,1.9c0,1.1-0.7,1.9-1.9,1.9H19.2z M24.1,41h1.4l0.6-1.4h2.6l0.6,1.4h1.4L28,34.8h-1.2
			L24.1,41z M26.6,38.5l0.8-2l0.8,2H26.6z M32.8,41h1.4v-2.5l2.4-3.7H35l-1.5,2.5L32,34.9h-1.6l2.4,3.7L32.8,41z M39.7,41.1
			c1.3,0,2.3-0.7,2.3-1.9c0-1.1-0.7-1.5-2-1.9c-1.1-0.3-1.3-0.4-1.3-0.8c0-0.3,0.3-0.6,0.8-0.6c0.5,0,1.1,0.2,1.6,0.6l0.7-1
			c-0.6-0.5-1.4-0.8-2.3-0.8c-1.3,0-2.2,0.7-2.2,1.9c0,1.2,0.8,1.6,2,1.9c1,0.3,1.2,0.4,1.2,0.8c0,0.4-0.3,0.6-0.9,0.6
			c-0.7,0-1.3-0.3-1.8-0.7l-0.8,1C37.8,40.8,38.8,41.1,39.7,41.1z"/>
	</g>
</g>
</svg>
