<svg xmlns="http://www.w3.org/2000/svg" width="80" height="55" viewBox="0 0 21.1667 14.5521">
  <path fill="#27ade4" d="M0 0h21.1667v14.552H0z" paint-order="stroke fill markers"/>
  <path fill="#2d78bc" d="M4.4509 5.7877l-.2928-.723-.2911.723m7.0315-.288c-.0588.0364-.1283.0375-.2115.0375h-.5197v-.4027h.5266c.0745 0 .1523.0031.2028.0324.0554.0267.0896.083.0896.1606.0002.079-.0325.143-.0878.1723m3.7057.288l-.2958-.7231-.2941.723zm-6.9078.7824h-.4385l-.0016-1.4205-.62 1.4205h-.3756l-.6215-1.4217v1.4217h-.8698l-.1643-.4045h-.8902l-.166.4045h-.4645l.7657-1.8136h.6355l.7271 1.717v-1.717h.6978l.5597 1.2303.514-1.2303h.7121v1.8136zm1.7472 0H8.015V4.7566h1.4286v.3778H8.4429v.327h.9767v.3718H8.443v.3617h1.0007zm2.014-1.325c0 .2889-.1904.4386-.3014.4833.0937.0363.1736.1.2116.153.0604.0899.071.1706.071.3323v.3564h-.4314l-.0017-.2286c0-.1092.0102-.2664-.0675-.3535-.0625-.0637-.1576-.0776-.3117-.0776h-.4592v.6597h-.4276V4.7566h.9837c.2187 0 .3797.0057.5177.0868.1354.0813.2166.1994.2166.4018m.6843 1.325h-.4362V4.7567h.4362zm5.0617 0h-.6061l-.8104-1.3613v1.3613h-.871l-.1662-.4045h-.8883l-.1616.4045h-.5004c-.2077 0-.471-.0466-.62-.2007-.1504-.1539-.2285-.3624-.2285-.6923 0-.2687.0465-.515.2306-.709.1382-.1448.3548-.2116.6494-.2116h.4139v.3885h-.4053c-.156 0-.244.0236-.329.1076-.0728.0765-.1229.2208-.1229.411 0 .194.0382.3342.1178.4256.0656.0719.1853.0937.2979.0937h.192l.6027-1.4262h.6408l.7239 1.7154V4.7568h.6512l.7516 1.2629v-1.263h.438zm-14.1242.3563h.7306l.1647-.403h.3687l.1643.403h1.4376v-.308l.1284.3092h.7461l.1283-.3137v.3125h3.5725l-.0017-.6614h.0691c.0485.0018.0625.0064.0625.0874v.574h1.8478v-.154c.1492.0811.381.154.6861.154h.7773l.1663-.403h.3688l.1627.403h1.4979v-.3828l.2269.3828h1.2004V4.3971h-1.1881v.2987l-.1662-.2987h-1.2191v.2987l-.1526-.2987H13.212c-.2753 0-.5177.039-.7135.1477V4.397h-1.1363v.1477c-.1244-.112-.294-.1477-.4829-.1477H6.7281l-.2785.6532-.286-.6532H4.8559v.2987l-.1437-.2987h-1.115l-.518 1.2026-.5938 1.3268zM18.5441 8.6367V7.4762H17.473c-.239 0-.4127.058-.5355.1478v-.1478h-1.171c-.1873 0-.4073.0468-.511.1478v-.1478h-2.0916v.1478c-.1663-.1214-.4473-.1478-.5768-.1478h-1.3795v.1478c-.1317-.129-.4244-.1478-.6029-.1478H9.0608l-.3533.387-.3309-.387H6.0704v2.5292h2.2627l.364-.3932.3428.3932 1.395.0015v-.5952h.137c.185.003.4032-.0046.5957-.0889v.6824h1.1505V9.346h.0557c.0708 0 .0776.0031.0776.0747v.5846h3.4947c.222 0 .454-.0576.5826-.1617v.1617h1.1083c.2308 0 .456-.0327.6274-.1165V9.886a.911.911 0 0 0 .4169-.7673.9074.9074 0 0 0-.1372-.482zm-7.9531.4046h-.5339v.608h-.8314l-.527-.6001-.5473.6002H6.4567V7.8366h1.7208l.5263.5942.5442-.5942h1.3671c.3394 0 .7208.0953.7208.5971 0 .5038-.371.6076-.745.6076zm2.5746-.0822c.0605.0885.0692.171.071.331v.3593h-.4293v-.2268c0-.109.0102-.2704-.0694-.3549-.0626-.0649-.1576-.0806-.3139-.0806h-.4572v.6623h-.4298V7.8366h.9878c.2165 0 .3741.0096.5147.0857.1351.0825.22.1955.22.4024 0 .2893-.1906.4371-.3032.4823.0948.0356.1728.0992.2093.1521zm1.7587-.7474h-1.0019v.3295H14.9v.37h-.9775v.3606l1.002.0018v.376h-1.4279v-1.813h1.4278zm1.0895 1.4379h-.8332v-.3889h.8301c.0812 0 .1386-.0106.1748-.045a.162.162 0 0 0 .0505-.1179c0-.0529-.0228-.095-.0523-.1201-.0329-.0279-.0777-.0402-.1523-.0402-.4001-.0136-.9012.0125-.9012-.5613 0-.2629.1632-.5396.6116-.5396h.8579v.3859h-.7848c-.0778 0-.1285.003-.1716.0326-.0466.0295-.0643.0728-.0643.1306 0 .0683.04.1148.0937.1351.0453.0157.0936.0203.1665.0203l.2305.0067c.232.0055.3916.0463.4885.1456.0834.087.1278.1973.1278.3838-.0001.3902-.2405.5724-.6722.5724zm2.202-.1751c-.1128.1154-.2945.175-.5317.175h-.8262v-.3888h.8228c.0817 0 .139-.0106.1733-.045a.1597.1597 0 0 0 .0505-.1179c0-.0529-.0207-.095-.0523-.1201-.031-.0279-.0761-.0402-.1508-.0402-.4017-.0136-.9028.0125-.9028-.5613 0-.2629.1647-.5396.6138-.5396h.836v.3858h-.7634c-.0776 0-.1294.0031-.1731.0327-.0452.0293-.0625.0729-.0625.1304 0 .0685.038.1148.0936.135.0453.016.0936.0207.1647.0207l.2319.0063c.234.0058.3903.0466.4852.146.0174.0137.0278.0293.04.0447a1.58 1.58 0 0 0-.0146-.0188.5949.5949 0 0 1-.0344.755zM7.9555 8.2117l.468.5282-.4888.5318h-1.052V8.911h.9393v-.3699h-.9393v-.3294zm1.0188.5344l.657-.7147v1.4533zm1.9026-.3123c0 .1572-.1024.2394-.2668.2394h-.5528v-.4615h.558c.1542 0 .2616.0635.2616.2221zm1.9093-.0263c0 .0775-.0331.14-.0887.1739-.0571.0344-.128.0373-.211.0373h-.52v-.407h.5267c.0763 0 .1526.0016.2043.0327.0557.0292.0887.0853.0887.163z"/>
  <g fill="#fff">
    <path d="M4.4509 5.9358l-.2928-.723-.2911.723m7.0315-.288c-.0588.0364-.1283.0375-.2115.0375h-.5197v-.4027h.5266c.0745 0 .1523.0031.2028.0324.0554.0267.0896.083.0896.1606.0002.0791-.0325.143-.0878.1723m3.7057.288l-.2958-.7231-.2941.723zm-6.9078.7825h-.4385l-.0016-1.4205-.62 1.4205h-.3756l-.6215-1.4217v1.4217h-.8698l-.1643-.4046h-.8902l-.166.4046h-.4645l.7657-1.8137h.6355l.7271 1.717v-1.717h.6978l.5597 1.2304.514-1.2304h.7121v1.8137zm1.7472 0H8.015V4.9047h1.4286v.3779H8.4429v.3269h.9767v.3718H8.443v.3617h1.0007zm2.014-1.325c0 .2888-.1904.4386-.3014.4832.0937.0363.1736.1.2116.153.0604.0899.071.1707.071.3324v.3564h-.4314l-.0017-.2287c0-.1092.0102-.2664-.0675-.3535-.0625-.0637-.1576-.0776-.3117-.0776h-.4592v.6598h-.4276V4.9047h.9837c.2187 0 .3797.0058.5177.0868.1354.0813.2166.1994.2166.4019m.6843 1.325h-.4362V4.9049h.4362zm5.0617 0h-.6061l-.8104-1.3613v1.3613h-.871l-.1662-.4046h-.8883l-.1616.4046h-.5004c-.2077 0-.471-.0467-.62-.2007-.1504-.154-.2285-.3625-.2285-.6924 0-.2687.0465-.515.2306-.709.1382-.1448.3548-.2116.6494-.2116h.4139v.3886h-.4053c-.156 0-.244.0235-.329.1075-.0728.0766-.1229.2209-.1229.411 0 .1941.0382.3343.1178.4257.0656.0718.1853.0936.2979.0936h.192l.6027-1.4262h.6408l.7239 1.7155V4.9049h.6512l.7516 1.263v-1.263h.438zm-14.1242.3562h.7306l.1647-.4029h.3687l.1643.403h1.4376v-.308l.1284.3091h.7461l.1283-.3137v.3125h3.5725l-.0017-.6614h.0691c.0485.0018.0625.0064.0625.0875v.574h1.8478v-.154c.1492.081.381.154.6861.154h.7773l.1663-.403h.3688l.1627.403h1.4979v-.3828l.2269.3827h1.2004V4.5452h-1.1881v.2988l-.1662-.2988h-1.2191v.2988l-.1526-.2988H13.212c-.2753 0-.5177.0391-.7135.1477v-.1477h-1.1363v.1477c-.1244-.112-.294-.1477-.4829-.1477H6.7281l-.2785.6532-.286-.6532H4.8559v.2988l-.1437-.2988h-1.115l-.518 1.2027-.5938 1.3267zM18.5441 8.7848V7.6244H17.473c-.239 0-.4127.0579-.5355.1478v-.1478h-1.171c-.1873 0-.4073.0467-.511.1478v-.1478h-2.0916v.1478c-.1663-.1215-.4473-.1478-.5768-.1478h-1.3795v.1478c-.1317-.129-.4244-.1478-.6029-.1478H9.0608l-.3533.387-.3309-.387H6.0704v2.5291h2.2627l.364-.3931.3428.3931 1.395.0015v-.5952h.137c.185.003.4032-.0046.5957-.0888v.6824h1.1505V9.494h.0557c.0708 0 .0776.0032.0776.0747v.5847h3.4947c.222 0 .454-.0577.5826-.1618v.1618h1.1083c.2308 0 .456-.0328.6274-.1166v-.0027a.911.911 0 0 0 .4169-.7673.9074.9074 0 0 0-.1372-.482zm-7.9531.4047h-.5339v.608h-.8314l-.527-.6002-.5473.6002H6.4567V7.9847h1.7208l.5263.5942.5442-.5942h1.3671c.3394 0 .7208.0953.7208.5971 0 .5038-.371.6077-.745.6077zm2.5746-.0823c.0605.0885.0692.171.071.331v.3593h-.4293v-.2268c0-.109.0102-.2704-.0694-.3549-.0626-.0649-.1576-.0806-.3139-.0806h-.4572v.6623h-.4298V7.9847h.9878c.2165 0 .3741.0096.5147.0856.1351.0825.22.1955.22.4025 0 .2893-.1906.437-.3032.4823.0948.0356.1728.0993.2093.1521zm1.7587-.7474h-1.0019v.3296H14.9v.3699h-.9775v.3606l1.002.0018v.3761h-1.4279v-1.813h1.4278zm1.0895 1.4379h-.8332v-.3888h.8301c.0812 0 .1386-.0107.1748-.045a.162.162 0 0 0 .0505-.118c0-.0528-.0228-.0949-.0523-.1201-.0329-.0278-.0777-.0401-.1523-.0401-.4001-.0137-.9012.0124-.9012-.5613 0-.263.1632-.5396.6116-.5396h.8579v.3858h-.7848c-.0778 0-.1285.003-.1716.0326-.0466.0295-.0643.0729-.0643.1306 0 .0683.04.1149.0937.1352.0453.0157.0936.0203.1665.0203l.2305.0066c.232.0055.3916.0464.4885.1456.0834.0871.1278.1973.1278.3838-.0001.3902-.2405.5724-.6722.5724zm2.202-.1751c-.1128.1154-.2945.175-.5317.175h-.8262V9.409h.8228c.0817 0 .139-.0107.1733-.045a.1597.1597 0 0 0 .0505-.118c0-.0528-.0207-.0949-.0523-.1201-.031-.0278-.0761-.0401-.1508-.0401-.4017-.0137-.9028.0124-.9028-.5613 0-.263.1647-.5396.6138-.5396h.836v.3857h-.7634c-.0776 0-.1294.0031-.1731.0327-.0452.0294-.0625.073-.0625.1304 0 .0686.038.1148.0936.1351.0453.016.0936.0206.1647.0206l.2319.0064c.234.0058.3903.0465.4852.1459.0174.0138.0278.0293.04.0447a1.5678 1.5678 0 0 0-.0146-.0188.5949.5949 0 0 1-.0344.755zM7.9555 8.3598l.468.5282-.4888.5318h-1.052v-.3607h.9393v-.3698h-.9393v-.3295zm1.0188.5345l.657-.7148v1.4533zm1.9026-.3123c0 .1571-.1024.2394-.2668.2394h-.5528v-.4616h.558c.1542 0 .2616.0636.2616.2222zm1.9093-.0264c0 .0775-.0331.14-.0887.174-.0571.0343-.128.0373-.211.0373h-.52v-.407h.5267c.0763 0 .1526.0015.2043.0327.0557.0291.0887.0853.0887.163z"/>
  </g>
</svg>