<svg xmlns="http://www.w3.org/2000/svg" width="80" height="55" viewBox="0 0 21.1667 14.5521">
  <path fill="#f3f2f2" d="M0 0h21.1667v14.552H0z" paint-order="stroke fill markers"/>
  <g transform="matrix(.16003 0 0 .16003 10.08 -20.7888)">
    <circle cx="6.2048" cy="168.0258" r="8.2497" fill="#f26e21"/>
    <g fill="#0b161f">
      <path d="M-38.2275 171.976c-.972.8703-2.2264 1.2476-4.2185 1.2476h-.8265v-10.3574h.8265c1.9918 0 3.1967.3524 4.2185 1.267 1.0652.9396 1.7008 2.394 1.7008 3.8969 0 1.5036-.6356 3.0093-1.7008 3.946zm-3.6007-11.7623h-4.5262v15.66h4.5035c2.39 0 4.1174-.5605 5.6332-1.8077 1.7978-1.479 2.8652-3.7095 2.8652-6.0153-.0003-4.6233-3.483-7.837-8.4757-7.837M-31.9322 175.8736h3.077v-15.6599h-3.077v15.66M-21.3222 166.2211c-1.8494-.6802-2.394-1.1276-2.394-1.969 0-.9872.9692-1.7386 2.297-1.7386.9236 0 1.68.3752 2.4888 1.2652l1.6069-2.087c-1.3245-1.1523-2.9107-1.7386-4.641-1.7386-2.792 0-4.9245 1.9257-4.9245 4.4818 0 2.1632.993 3.266 3.8838 4.3016 1.2078.4207 1.8217.7009 2.1304.892.615.4.9247.9611.9247 1.6186 0 1.2703-1.0186 2.2077-2.3939 2.2077-1.4682 0-2.6511-.7265-3.362-2.0889l-1.986 1.9037c1.4176 2.0632 3.1226 2.983 5.4686 2.983 3.1957 0 5.4441-2.1167 5.4441-5.1441.0013-2.4905-1.0382-3.6182-4.5429-4.8874M-15.8077 168.0507c0 4.6075 3.6472 8.1764 8.336 8.1764 1.3265 0 2.461-.2603 3.86-.9139v-3.5964c-1.2325 1.2226-2.3226 1.7147-3.7196 1.7147-3.1017 0-5.3043-2.2315-5.3043-5.4025 0-3.0046 2.273-5.3777 5.1638-5.3777 1.4653 0 2.58.5157 3.86 1.7614v-3.5939c-1.3483-.6791-2.464-.9593-3.7907-.9593-4.6632.001-8.4052 3.6412-8.4052 8.1912M21.3432 170.7328l-4.2156-10.519h-3.362l6.7034 16.061h1.6553l6.8212-16.061h-3.3393l-4.263 10.519M30.3443 175.8736h8.7358v-2.65h-5.6579v-4.2312h5.4412v-2.6504h-5.4412v-3.476h5.6579v-2.6523h-8.7358v15.66M45.0914 167.422h-.897v-4.746h.9454c1.9217 0 2.9642.802 2.9642 2.3254 0 1.5721-1.0425 2.4207-3.0126 2.4207zm6.1796-2.5868c0-2.9334-2.0344-4.6215-5.5885-4.6215h-4.5688v15.66h3.08v-6.2934h.404l4.259 6.2933h3.7888l-4.9747-6.5973c2.3241-.4692 3.6002-2.0442 3.6002-4.441"/>
    </g>
    <path d="M-23.8863 190.4289v-8.8101l6.0153 6.2934v-5.7333h1.2454v8.7517l-6.0153-6.2786v5.7756h-1.2454zM-10.0964 183.3494h-3.3076v1.982h3.2115v1.171h-3.2115v2.7562h3.3076v1.1703h-4.5522v-8.2486h4.5522zM-6.1859 183.3494v7.0787h-1.2454v-7.0787H-9.327v-1.1702h5.0331v1.1702zM-2.2854 182.1803l2.1484 5.5133 2.2453-5.9142 2.1473 5.9142 2.281-5.5133h1.3523l-3.6867 8.7725-2.1217-5.845-2.2117 5.851-3.5057-8.7783zM8.1275 186.2678c0-1.1623.4268-2.1593 1.2772-2.992.8474-.8336 1.8671-1.2503 3.0572-1.2503 1.175 0 2.1831.4199 3.0234 1.2602.8446.8416 1.2653 1.8502 1.2653 3.0305 0 1.185-.4236 2.1918-1.2703 3.0186-.8514.8298-1.879 1.2454-3.083 1.2454-1.064 0-2.0216-.3693-2.869-1.106-.9335-.8164-1.4008-1.8856-1.4008-3.2064zm1.2563.013c0 .9107.3069 1.6592.9186 2.2474.6088.5881 1.3129.881 2.1116.881.8644 0 1.595-.299 2.19-.8959.595-.6048.892-1.3414.892-2.2098 0-.88-.294-1.6166-.8822-2.2098-.5842-.598-1.3068-.8969-2.169-.8969-.8584 0-1.583.299-2.173.897-.592.5881-.888 1.3186-.888 2.187zM21.1106 186.9134l2.5543 3.5155h-1.5227l-2.356-3.3758h-.2247v3.3758h-1.2454v-8.2486h1.4584c1.0909 0 1.877.205 2.3622.6148.5347.4554.802 1.0573.802 1.8058 0 .5842-.1673 1.0861-.503 1.5058-.3353.4196-.7758.6897-1.325.8067zm-1.5486-.9456h.394c1.179 0 1.7693-.4506 1.7693-1.3515 0-.8446-.5734-1.2663-1.7206-1.2663h-.4427zM26.1496 185.4709l3.2107-3.291h1.6622l-3.7293 3.7355 3.7512 4.5135h-1.6671l-2.971-3.67-.2564.2574v3.4126h-1.2454v-8.2486h1.2454v3.2906z"/>
  </g>
  <path fill="#f26e21" d="M21.16 8.6387a6.0428 6.0428 0 0 1-5.691 5.9007v.0127h5.6977V8.6388z" paint-order="stroke fill markers"/>
</svg>