<svg xmlns="http://www.w3.org/2000/svg" xmlns:xlink="http://www.w3.org/1999/xlink" width="239.5" height="87">
  <defs>
    <linearGradient id="a">
      <stop offset="0" stop-color="#b88765"/>
      <stop offset="1" stop-color="#bec8b7" stop-opacity="0"/>
    </linearGradient>
    <linearGradient id="b" x1="158.2285" x2="269.0469" y1="32.2207" y2="32.2207" gradientUnits="userSpaceOnUse" xlink:href="#a"/>
  </defs>
  <g style="line-height:1.25;-inkscape-font-specification:'Adobe Fan Heiti Std'">
    <path fill="#ffbc29" d="M9.5216 79.3449h3.0394l1.239-3.0395h5.7294l1.239 3.0395h3.1173l-5.8081-13.6486H15.328zm5.3418-5.6723l1.8013-4.3944 1.8005 4.3944zm12.6713 5.6723h2.9815v-4.0664h2.265c3.0395 0 5.4793-1.625 5.4793-4.7605 0-2.8075-1.9561-4.724-5.1894-4.724h-5.5364zm2.9815-6.7166V68.484h2.304c1.4899 0 2.42.7164 2.42 2.0514 0 1.2009-.8721 2.0912-2.3629 2.0912zm11.5267 6.7166h2.9815v-4.0664h2.2642c3.0395 0 5.4793-1.625 5.4793-4.7605 0-2.8075-1.9545-4.724-5.1886-4.724H42.043zm2.9815-6.7166V68.484h2.3032c1.4907 0 2.42.7164 2.42 2.0514 0 1.2009-.8705 2.0912-2.3612 2.0912zm11.5267 6.7166h9.737v-2.7115h-6.7563v-10.841h-2.9815zm13.6974 0H73.23V65.7924h-2.9815zm6.7829 0h3.0394l1.239-3.0395h5.731l1.2374 3.0395h3.1173l-5.8073-13.6486h-2.7495zm5.3435-5.6723l1.8005-4.3944 1.8004 4.3944zm12.6704 5.6723h2.9426v-8.614l6.5626 8.6131h2.5359v-13.55h-2.9426v8.3449l-6.3489-8.344h-2.7496zm23.2018.2327c2.6137 0 4.1624-.8133 5.5563-2.304l-1.8974-2.0332c-1.0642.969-2.0133 1.5876-3.5612 1.5876-2.324 0-3.9306-1.9355-3.9306-4.2594 0-2.3603 1.6456-4.2585 3.9298-4.2585 1.5487 0 2.439.5615 3.485 1.5098l1.7806-2.0523c-1.2589-1.2381-2.6908-2.2071-5.2466-2.2071-4.1625 0-7.0661 3.1562-7.0661 7.0081 0 3.9298 2.9624 7.009 6.9502 7.009zm9.52-.2327h10.3176V76.693h-7.3568v-2.8465h6.3886v-2.6518h-6.3886v-2.7488h7.2607V65.794h-10.2215zm21.9453 0h2.9807v-4.3364h2.304l2.9417 4.3364h3.485l-3.3102-4.84c1.7226-.6377 2.9036-2.0125 2.9036-4.2005 0-1.3169-.4058-2.381-1.162-3.1364-.8902-.8911-2.2261-1.3748-3.9496-1.3748h-6.1932zm2.9807-6.9692v-3.8909h2.9616c1.4518 0 2.343.6576 2.343 1.9355 0 1.181-.8324 1.9554-2.285 1.9554zm12.5843 6.9692h10.3193V76.693h-7.356v-2.8465h6.3886v-2.6518h-6.3886v-2.7488h7.259V65.794h-10.2223zm14.5472 0h2.9815v-4.0664h2.2642c3.0395 0 5.4793-1.625 5.4793-4.7605 0-2.8075-1.9562-4.724-5.1886-4.724h-5.5364zm2.9815-6.7166V68.484h2.3023c1.4908 0 2.4208.7164 2.4208 2.0514 0 1.2009-.872 2.0912-2.3628 2.0912zm9.0032 6.7166h3.0395l1.239-3.0395h5.7302l1.2381 3.0395h3.1173l-5.8073-13.6486h-2.7495zm5.3435-5.6723l1.7996-4.3944 1.8005 4.3944zm12.8054 5.6723h2.9815V65.7924h-2.9815zm7.9449 0h2.9814v-4.3364h2.304l2.9418 4.3364h3.4842l-3.3103-4.84c1.7235-.6377 2.9045-2.0125 2.9045-4.2005 0-1.3169-.4067-2.381-1.162-3.1364-.8911-.8911-2.2262-1.3748-3.9496-1.3748h-6.194zm2.9814-6.9692v-3.8909h2.9616c1.4519 0 2.3413.6576 2.3413 1.9355 0 1.181-.8315 1.9554-2.2833 1.9554z" aria-label="APPLIANCE REPAIR" font-family="Gotham Pro" font-size="24.557" font-weight="700" letter-spacing="2" style="-inkscape-font-specification:'Gotham Pro Bold'" word-spacing="0"/>
  </g>
  <path fill="#fff" d="M9.7618 57.0774h10.7v-14.594h8.131c10.911 0 19.667-5.837 19.667-17.096.002-10.076-7.018-16.956-18.623-16.956H9.7608zm10.7-24.115v-14.871h8.27c5.351 0 8.687 2.572 8.687 7.367 0 4.309-3.127 7.505-8.478 7.505zm42.4877 24.115h10.702v-15.566h8.27l10.563 15.567h12.51l-11.885-17.375c6.185-2.293 10.424-7.227 10.424-15.08 0-4.726-1.46-8.548-4.17-11.258-3.197-3.197-7.992-4.934-14.177-4.934h-22.237zm10.702-25.018v-13.969h10.633c5.212 0 8.409 2.363 8.409 6.95 0 4.24-2.989 7.019-8.2 7.019zm69.2087 25.852c15.01 0 25.92-11.328 25.92-25.157 0-13.969-10.77-25.157-25.782-25.157-15.01 0-25.922 11.327-25.922 25.157 0 13.968 10.772 25.157 25.783 25.157zm.138-9.868c-8.617 0-14.733-6.95-14.733-15.29 0-8.478 5.977-15.288 14.594-15.288 8.618 0 14.733 6.95 14.733 15.289 0 8.478-5.976 15.289-14.594 15.289z" aria-label="PRO" font-family="Gotham Pro" font-size="69.495" font-weight="700" letter-spacing="5" style="line-height:1.25;-inkscape-font-specification:'Gotham Pro Bold'" word-spacing="0"/>
  <g transform="translate(272.3847 -70.2033)">
    <path fill="#fff" d="M-45.0379 127.3192c.6213 0 1.1184-.497 1.1184-1.1184v-6.1905c0-1.6493-.7343-3.1969-1.9995-4.2475-5.2303-4.2926-10.856-7.275-12.6747-8.19v-4.9754a5.1733 5.1733 0 0 0 1.8187-3.9425V86.8776c0-5.106-4.1571-9.2519-9.2519-9.2519h-1.943c-5.106 0-9.2518 4.1572-9.2518 9.2519v11.7773c0 1.525.6665 2.9597 1.8187 3.9425v4.9755c-1.8187.915-7.4444 3.8973-12.6747 8.19-1.2765 1.0392-1.9995 2.5869-1.9995 4.2474v6.1905c0 .6214.497 1.1184 1.1184 1.1184z"/>
    <path fill="#ffbc29" d="M-75.4023 107.5723c-1.8188.915-8.9924 3.8987-14.2227 8.1914-1.2765 1.0392-2 2.5855-2 4.246v6.1915c0 .6213.4978 1.1172 1.1191 1.1172h46.9824a1.1117 1.1117 0 0 0 1.1172-1.1172v-6.1914c0-1.6493-.7348-3.1956-2-4.2461-3.947-3.1075-9.7426-5.8975-14.1874-8.1914l-5.5 3.1914L-67 116.246l-2.9043-5.4824zM-67.97 77.6257c-5.106 0-9.252 4.1572-9.252 9.252v1.3977c3.076 1.1684 1.7534-2.5805 10.2246-2.58 8.4713.0005 7.1466 3.7507 10.2227 2.584v-1.4017c0-5.106-4.1572-9.252-9.252-9.252z"/>
    <rect width="9.4375" height="1.4688" x="-60.2905" y="116.925" fill="#fff" paint-order="fill markers stroke" rx=".7344" ry=".7344"/>
  </g>
  <g stroke-linecap="round" stroke-linejoin="round" stroke-width="2.6">
    <path fill="#ffbc29" d="M65.1468-125.1279c4.4 42.614 17.722 43.9 64.521 24.45h5.952l-24.452-24.45zm64.521 24.45l-51.766.003v24.535h51.766v-3.386z" paint-order="stroke markers fill"/>
    <path fill="#fff" d="M65.1468-125.1259l-24.451 24.45v24.536h42.95v-24.532l5.952-.002-24.451-24.451z" paint-order="stroke markers fill"/>
  </g>
  <g stroke-linecap="round" stroke-linejoin="round" stroke-width="2.6">
    <path fill="#fff" d="M178.8998-103.0347l-24.45 24.451v24.535h48.901v-24.535z" paint-order="stroke markers fill"/>
    <path fill="#ffbc29" d="M178.8998-103.0367l24.451 24.451h46.022l-24.452-24.451zm70.473 24.451l-46.022.002v24.535h46.022z" paint-order="stroke markers fill"/>
  </g>
  <rect width="34.6315" height="3.9339" x="-239.7659" y="-201.1252" fill="#ffbc29" paint-order="fill markers stroke" rx="0" ry="0" transform="scale(-1 1)"/>
  <rect width="25.4681" height="3.9339" x="-301.7677" y="-201.1252" fill="#ffbc29" paint-order="fill markers stroke" rx="0" ry="0" transform="scale(-1 1)"/>
  <g>
    <g transform="translate(32.7213 -253.3433)">
      <rect width="34.6315" height="48.985" x="-207.0446" y="7.167" fill="#ffbc29" paint-order="fill markers stroke" rx="0" ry="0" transform="scale(-1 1)"/>
      <rect width="2.0946" height="44.708" x="-190.7761" y="9.3055" fill="#fff" paint-order="fill markers stroke" rx="0" ry="0" transform="scale(-1 1)"/>
      <g fill="#fff" transform="matrix(-1 0 0 1 511.6244 0)">
        <rect width="2.0946" height="8.5751" x="324.7811" y="27.3719" paint-order="fill markers stroke" rx="0" ry="0"/>
        <rect width="2.0946" height="8.5751" x="316.9155" y="27.3719" paint-order="fill markers stroke" rx="0" ry="0"/>
      </g>
    </g>
    <g transform="matrix(-.735 0 0 .735 524.292 -271.187)">
      <rect width="34.6315" height="35.6047" x="302.7697" y="65.0688" fill="#ffbc29" paint-order="fill markers stroke" rx="0" ry="0"/>
      <rect width="25.948" height="18.8184" x="307.1114" y="77.9737" fill="#fff" paint-order="fill markers stroke" rx="0" ry="0"/>
      <g fill="#fff" transform="translate(0 -1.3765)">
        <circle cx="309.5246" cy="73.1659" r="2.4132" paint-order="fill markers stroke"/>
        <circle cx="330.6462" cy="73.1659" r="2.4132" paint-order="fill markers stroke"/>
        <circle cx="316.5759" cy="73.1659" r="2.4132" paint-order="fill markers stroke"/>
        <circle cx="323.8259" cy="73.1659" r="2.4132" paint-order="fill markers stroke"/>
      </g>
    </g>
    <g transform="translate(32.7213 -253.3433)">
      <rect width="26.648" height="33.039" x="-238.4356" y="23.113" fill="#ffbc29" paint-order="fill markers stroke" rx="0" ry="0" transform="scale(-1 1)"/>
      <g transform="matrix(.76947 0 0 .76947 -60.1398 8.2165)">
        <circle cx="370.7103" cy="43.9" r="12.3884" fill="#fff" paint-order="fill markers stroke"/>
        <circle cx="370.7103" cy="43.9" r="8.5539" fill="#ffbc29" paint-order="fill markers stroke"/>
        <path fill="#fff" d="M376.9857 35.7966h2.7507V51.926h-2.7507z" paint-order="fill markers stroke"/>
      </g>
      <rect width="2.0946" height="21.9931" x="26.5566" y="214.2625" fill="#fff" paint-order="fill markers stroke" rx="0" ry="0" transform="matrix(0 1 1 0 0 0)"/>
    </g>
  </g>
  <rect width="2.0946" height="96.6333" x="-197.1913" y="205.1344" fill="#fff" paint-order="fill markers stroke" rx="0" ry="0" transform="matrix(0 1 1 0 0 0)"/>
  <rect width="26.648" height="3.9339" x="-271.1568" y="-201.1252" fill="#ffbc29" paint-order="fill markers stroke" rx="0" ry="0" transform="scale(-1 1)"/>
</svg>