<svg xmlns="http://www.w3.org/2000/svg" width="80" height="55" viewBox="0 0 21.1667 14.5521">
  <path fill="#fff" d="M0 0h21.1667v14.552H0z" paint-order="stroke fill markers"/>
  <path fill="#e2574c" d="M12.239 7.276c0 2.2908-1.8557 4.147-4.1457 4.147S3.9476 9.5664 3.9476 7.276s1.8562-4.147 4.1457-4.147c2.2895 0 4.1457 1.8566 4.1457 4.147z"/>
  <path fill="#f4b459" d="M13.0722 3.129c-.9298 0-1.7857.3098-2.4774.827l.0033.0004c.136.1314.2861.224.4018.3753l-.8625.0137c-.1352.1364-.2584.2849-.3745.4391h1.521c.1158.139.2228.2597.3198.413H9.4871a4.132 4.132 0 0 0-.2119.4135h2.5695c.0672.1422.1273.2497.1783.4002h-2.9a3.9938 3.9938 0 0 0-.1153.4388h3.1368c.0307.1434.0543.2761.0705.4113H8.9455a4.1554 4.1554 0 0 0-.0207.4148h3.3138c0 .1468-.0104.2828-.0253.4147H8.9455c.0141.1406.0349.2786.0622.4147h3.1318a4.893 4.893 0 0 1-.1165.4097H9.1135c.044.1418.0975.2795.1559.4138h2.5753c-.0713.151-.1522.2717-.2413.413H9.4797c.0838.1452.1763.2837.2766.4164l1.5277.0228c-.1302.1563-.2973.2505-.4495.3873.0082.0067-.2435-.0008-.739-.0086.7539.778 1.8076 1.2631 2.9766 1.2631 2.2904 0 4.147-1.8566 4.147-4.147 0-2.2903-1.8562-4.147-4.147-4.147z"/>
</svg>