<?xml version="1.0" standalone="no"?>
<!DOCTYPE svg PUBLIC "-//W3C//DTD SVG 20010904//EN"
 "http://www.w3.org/TR/2001/REC-SVG-20010904/DTD/svg10.dtd">
<svg version="1.0" xmlns="http://www.w3.org/2000/svg"
 width="512.000000pt" height="512.000000pt" viewBox="0 0 512.000000 512.000000"
 preserveAspectRatio="xMidYMid meet">
<metadata>
Created by potrace 1.11, written by Peter Selinger 2001-2013
</metadata>
<g transform="translate(0.000000,512.000000) scale(0.100000,-0.100000)"
fill="#000000" stroke="none">
<path d="M0 2560 l0 -2560 2560 0 2560 0 0 2560 0 2560 -2560 0 -2560 0 0
-2560z m3158 715 c260 -61 429 -305 392 -564 -37 -264 -247 -441 -522 -441
-149 0 -274 49 -372 146 -101 99 -149 216 -148 363 1 202 106 369 287 456 113
54 241 69 363 40z m1235 1 c43 -17 93 -76 106 -123 6 -21 11 -97 11 -168 0
-111 -3 -137 -20 -170 -12 -23 -20 -58 -20 -85 l1 -45 125 -70 c69 -38 141
-85 160 -103 34 -33 34 -33 34 -126 0 -89 -1 -94 -22 -100 -30 -8 -897 -8
-937 0 l-31 7 0 81 c0 45 6 92 13 106 18 36 98 92 214 152 l103 53 0 48 c0 33
-6 57 -21 76 -19 26 -20 39 -17 193 3 160 4 166 30 206 39 58 87 81 171 82 37
0 82 -6 100 -14z m-3535 -20 c104 -28 184 -93 226 -185 30 -66 29 -217 -1
-282 -65 -142 -199 -209 -420 -209 l-112 0 -3 -147 -3 -148 -107 -3 -108 -3 0
496 0 495 238 0 c171 0 252 -4 290 -14z m1158 -7 c56 -17 77 -31 125 -78 46
-46 61 -70 74 -116 22 -75 17 -192 -12 -257 -25 -55 -87 -118 -142 -142 l-40
-19 120 -176 120 -176 -122 -3 c-90 -2 -126 1 -135 10 -7 7 -57 78 -112 158
l-98 145 -82 3 -81 3 -3 -158 -3 -158 -107 -3 -108 -3 0 496 0 495 269 0 c245
0 275 -2 337 -21z m-1499 -1192 c11 -28 37 -89 57 -134 l35 -83 -30 0 c-24 0
-32 6 -40 30 -11 29 -13 30 -70 30 -58 0 -60 -1 -70 -30 -9 -24 -17 -30 -41
-30 -16 0 -28 4 -26 9 2 4 27 65 57 135 49 115 56 126 80 126 22 0 29 -8 48
-53z m316 43 c31 0 67 -45 67 -84 0 -19 -3 -42 -6 -51 -9 -24 -58 -45 -104
-45 l-40 0 0 -40 c0 -38 -2 -40 -30 -40 l-30 0 0 129 0 130 43 4 c23 2 51 2
62 1 11 -2 28 -4 38 -4z m325 -11 c29 -18 45 -61 37 -98 -10 -45 -48 -71 -106
-71 l-49 0 0 -45 c0 -41 -2 -45 -25 -45 l-25 0 0 141 0 142 74 -6 c40 -3 83
-11 94 -18z m180 -91 l3 -108 64 0 65 0 0 -30 0 -30 -95 0 -95 0 0 141 0 140
28 -3 27 -3 3 -107z m272 -28 l0 -140 -25 0 -25 0 0 140 0 140 25 0 25 0 0
-140z m308 15 c29 -68 55 -131 58 -140 5 -11 -1 -15 -23 -15 -24 0 -32 6 -44
33 -13 30 -17 32 -71 35 -57 3 -57 3 -72 -33 -12 -27 -21 -35 -40 -35 -15 0
-26 3 -26 8 0 4 25 67 57 140 52 122 58 132 83 132 24 0 30 -10 78 -125z m257
41 l60 -79 5 79 c5 77 6 79 33 82 l27 3 0 -140 c0 -140 0 -141 -23 -141 -16 0
-39 22 -87 86 l-65 86 -5 -83 c-5 -83 -5 -84 -32 -87 l-28 -3 0 141 0 141 27
-3 c21 -2 42 -22 88 -82z m420 70 c37 -16 44 -36 20 -56 -11 -9 -19 -8 -37 4
-34 24 -66 19 -99 -13 -20 -20 -29 -39 -29 -61 0 -22 9 -41 29 -61 33 -33 53
-36 95 -14 28 15 31 14 49 -4 20 -19 20 -20 -14 -41 -47 -29 -128 -24 -165 11
-56 52 -69 119 -34 177 40 65 113 88 185 58z m335 -11 c0 -23 -3 -24 -72 -27
-71 -3 -73 -4 -76 -30 l-3 -28 65 0 c63 0 66 -1 66 -25 0 -23 -4 -24 -62 -27
-63 -3 -63 -3 -63 -33 l0 -30 73 -3 c69 -3 72 -4 72 -28 l0 -25 -102 3 -103 3
-3 124 c-1 69 0 131 2 138 4 9 32 13 106 13 100 0 100 0 100 -25z m403 14 c68
-19 85 -106 29 -149 l-25 -20 31 -44 c18 -24 32 -47 32 -50 0 -3 -13 -6 -29
-6 -24 0 -36 9 -62 45 -22 31 -40 45 -55 45 -20 0 -23 -6 -26 -42 -3 -39 -6
-43 -30 -46 l-28 -3 0 140 0 141 63 0 c34 0 79 -5 100 -11z m357 -14 c0 -23
-3 -24 -72 -27 -71 -3 -73 -4 -76 -30 l-3 -28 65 0 c63 0 66 -1 66 -25 0 -23
-4 -24 -62 -27 -63 -3 -63 -3 -63 -33 l0 -30 73 -3 c69 -3 72 -4 72 -27 0 -25
0 -25 -100 -25 l-100 0 0 140 0 140 100 0 c100 0 100 0 100 -25z m268 -2 c28
-21 39 -64 28 -109 -8 -30 -54 -54 -105 -54 -40 0 -40 0 -43 -42 -3 -39 -6
-43 -30 -46 l-28 -3 0 142 0 142 76 -5 c54 -4 83 -11 102 -25z m291 -102 c30
-71 54 -133 53 -138 -5 -21 -46 -6 -62 22 -15 27 -22 30 -73 33 -56 3 -56 3
-71 -33 -12 -27 -21 -35 -40 -35 -15 0 -26 3 -26 8 0 4 25 67 57 140 52 121
58 132 82 132 24 0 31 -11 80 -129z m201 -11 l0 -130 -30 0 -30 0 0 130 0 130
30 0 30 0 0 -130z m297 115 c44 -31 39 -110 -9 -143 -17 -13 -17 -15 12 -58
l31 -44 -33 0 c-28 0 -37 6 -58 40 -19 31 -31 40 -52 40 -26 0 -28 -3 -28 -40
0 -38 -2 -40 -30 -40 l-30 0 0 130 0 130 88 0 c62 0 94 -4 109 -15z"/>
<path d="M2970 3081 c-160 -34 -255 -184 -228 -357 44 -281 418 -349 547 -98
83 160 18 364 -139 433 -53 23 -131 33 -180 22z"/>
<path d="M550 2919 l0 -152 114 5 c87 4 122 10 147 24 98 58 104 189 10 251
-31 21 -46 23 -152 23 l-119 0 0 -151z"/>
<path d="M1630 2929 l0 -142 138 5 c148 5 187 16 218 63 25 38 28 104 7 145
-30 58 -67 70 -225 70 l-138 0 0 -141z"/>
<path d="M447 1993 c-8 -21 -13 -41 -10 -45 7 -13 63 -9 63 4 0 19 -23 78 -31
78 -4 0 -14 -17 -22 -37z"/>
<path d="M750 2015 l0 -45 40 0 c34 0 42 4 52 25 15 33 -1 50 -54 59 l-38 7 0
-46z"/>
<path d="M1040 2010 c0 -40 0 -40 39 -40 46 0 66 19 57 55 -6 22 -12 25 -51
25 l-45 0 0 -40z"/>
<path d="M1817 1990 l-15 -40 34 0 c19 0 34 2 34 5 0 10 -29 75 -33 75 -2 0
-11 -18 -20 -40z"/>
<path d="M3230 2010 c0 -40 0 -40 39 -40 23 0 46 7 55 16 35 34 11 64 -51 64
l-43 0 0 -40z"/>
<path d="M3840 2010 l0 -40 40 0 c33 0 42 4 52 25 16 35 -4 55 -53 55 -39 0
-39 0 -39 -40z"/>
<path d="M4147 1992 l-15 -37 30 -3 c39 -4 43 1 28 38 -18 44 -26 44 -43 2z"/>
<path d="M4617 2053 c-4 -3 -7 -24 -7 -45 0 -37 1 -38 36 -38 49 0 74 16 74
46 0 17 -8 27 -26 34 -29 11 -68 13 -77 3z"/>
</g>
</svg>
