<svg xmlns="http://www.w3.org/2000/svg" width="517.818" height="405.785" viewBox="0 0 517.8184 405.785">  <path fill="#fac917" d="M426.667 154.995L320 258.97l25.173 146.815-131.84-69.316-131.848 69.314 25.182-146.816L0 154.994l147.41-21.42L213.332 0l65.916 133.576"/>  <path fill="#fac917" d="M426.667 154.995L320 258.97l25.173 146.815-131.84-69.316-131.848 69.314 25.182-146.816L0 154.994l147.41-21.42L213.332 0l65.916 133.576"/>  <path fill="#fac917" d="M426.667 154.995L320 258.97l25.173 146.815-131.84-69.316-131.848 69.314 25.182-146.816L0 154.994l147.41-21.42L213.332 0l65.916 133.576"/>  <path fill="#fac917" d="M426.667 154.995L320 258.97l25.173 146.815-131.84-69.316-131.848 69.314 25.182-146.816L0 154.994l147.41-21.42L213.332 0l65.916 133.576"/>  <path fill="#fac917" d="M426.667 154.995L320 258.97l25.173 146.815-131.84-69.316-131.848 69.314 25.182-146.816L0 154.994l147.41-21.42L213.332 0l65.916 133.576"/>  <path fill="#ffd200" d="M426.667 154.995L320 258.97l25.173 146.815-131.84-69.316-131.848 69.314 25.182-146.816L0 154.994l147.41-21.42L213.332 0l65.916 133.576"/></svg>