<svg xmlns="http://www.w3.org/2000/svg" width="152" height="24">  <path fill="#F27802" fill-rule="evenodd" d="M100.7908 11.6786c-.3734-.4455-.9108-.6712-1.5981-.6712-1.4707 0-3.1977 1.313-3.653 3.8223-.2887 1.588-.1362 2.793.4413 3.4843.3703.4444.9057.6694 1.5902.6694 1.1098 0 3.0631-.518 3.6791-3.9887.2657-1.4938.1065-2.6406-.4595-3.316zm2.3436-1.7907c.9776 1.1629 1.2836 3.1371.8608 5.5584-.6251 3.5838-3.2077 6.0867-6.2802 6.0867-1.2241 0-2.2214-.4538-2.9639-1.3488l-.1253-.1514-.1398.792c-.0446.2475-.2338.4137-.4704.4137h-1.993c-.0877 0-.1747-.0416-.233-.1107-.0588-.0701-.0824-.1605-.066-.2542l.1416-.8056-.1872.1465c-.7676.603-1.9505 1.3215-3.225 1.3215-.869 0-1.4977-.2305-1.8699-.684-.7076-.8634-.4085-2.3584-.1898-3.45.034-.1708.0658-.3297.0907-.4729a449.516 449.516 0 0 1 .2699-1.5168c.4753-2.646.6718-3.7415.3036-4.1816-.1253-.1496-.3112-.2196-.585-.2196-1.8539 0-4.1869 4.966-5.5332 9.8716-.0634.2293-.2409.3558-.4996.3558h-1.835c-.088 0-.1756-.0419-.2341-.1113-.0585-.0701-.0816-.1611-.0643-.2563.044-.2448.336-1.9187.336-1.9187.1098-.6206.223-1.2275.3325-1.8117.5405-2.8938.9675-5.1795.376-5.892-.131-.1574-.3075-.2374-.525-.2374-1.3927 0-3.67 4.0658-5.538 9.887-.0804.2512-.3087.3404-.4795.3404h-1.858c-.0834 0-.169-.0431-.229-.1147-.0555-.0664-.0792-.148-.0652-.2244.0109-.0616.1386-.815.1386-.815l-.1823.1368c-1.198.8969-2.2102 1.3148-3.1853 1.3148-.8687 0-1.4968-.2247-1.8684-.667-.4252-.5065-.535-1.306-.3351-2.4434l.2123-1.2017-.1674-.063c-1.1338 1.878-2.9403 4.3751-5.5286 4.3751-1.1086 0-1.9594-.5293-2.3346-1.4525l-.0446-.1101-.0946.0716c-1.273.9669-2.2414 1.491-3.7112 1.491-.8532 0-1.4723-.2232-1.8399-.6627-.6766-.8092-.4261-2.201-.2435-3.2175l.0528-.2981c.1765-1.0382.4076-2.3451.6163-3.5247l.1747-.9873c.1089-.6184.1701-1.2383-.1186-1.582-.1401-.1671-.3503-.2517-.6248-.2517-1.2205 0-4.3351 3.7822-6.6345 9.9423-.0525.141-.2184.2842-.434.2842H42.934c-.1183 0-.191-.057-.2314-.105-.0574-.068-.0843-.1616-.0704-.2441.0549-.3212 1.839-10.4282 2.696-15.2856l.485-2.7474c.0337-.191.2245-.3952.4556-.3952h2.2448c.0888 0 .1695.0383.2284.1074.0597.0713.0867.1671.0712.2563l-1.8601 10.4588.1698.0586c.0249-.047 2.5284-4.7046 5.652-4.7046 1.028 0 1.7726.2666 2.2139.7922.6703.7996.5505 2.0692.3712 3.0862-.1965 1.1152-.3958 2.229-.5723 3.2171-.1407.7889-.2675 1.498-.3673 2.0655-.1213.6882-.078 1.1277.1371 1.3843.1626.1938.4164.2836.7989.2836.4923 0 1.0734-.2509 1.727-.7456l.0385-.0294-.002-.0476c-.0268-.568.0218-1.2056.1434-1.8953 0 0 1.2092-6.9223 1.2735-7.2884a.4816.4816 0 0 1 .4696-.404h2.2162c.104 0 .1896.0364.2478.1055.057.0674.0846.1656.0707.249l-1.2833 7.2733a14.5418 14.5418 0 0 1-.04.2138c-.1126.5872-.267 1.3922.0852 1.8177.1501.1817.377.2739.6748.2739 1.5114 0 4.6327-3.4134 6.3209-9.5853.004-.0143.1-.3488.467-.3488h1.715c.0967 0 .1828.039.2426.1104.0594.071.0861.1647.0707.2505-.2415 1.3697-1.5005 8.5089-1.5044 8.532-.1086.6454-.0637 1.0582.1407 1.2999.1444.1704.3676.2532.6828.2532.6135 0 1.3909-.453 1.9135-.8768l.0264-.0212.0057-.0337c.3943-2.2068.943-5.3081 1.3097-7.3824l.3057-1.7273c.0422-.2393.2305-.4.4677-.4l2.2333-.0037c.093 0 .1825.0403.2393.1076.0564.0668.077.1532.0603.2503-.1286.7428-.615 3.5268-.615 3.5268l.1698.0585c.0603-.1134.1283-.2463.2032-.394.7003-1.3779 2.0045-3.9426 4.3609-3.9426 1.6679 0 2.5338.9002 2.5735 2.6754.0258 1.1538-.1431 1.932-.1447 1.94l.173.054c.019-.047 1.9429-4.67 5.2638-4.67 1.0488 0 1.7279.2299 2.137.7237.599.7221.67 2.0815.2318 4.4079-.1135.602-.3082 1.727-.4802 2.7197-.0843.4874-.165.9509-.2299 1.3209-.1216.6903-.078 1.132.1377 1.3888.1596.1902.405.2781.7725.2781.7322 0 1.4231-.5301 1.8793-.9293l.0243-.0209.0054-.0319c.3167-1.7982 2.415-13.6996 2.7613-15.6553.0419-.235.2342-.3994.4674-.3994h2.2275c.0985 0 .184.0373.2408.1046.058.0689.08.1623.0622.2636l-.097.5575a1201.744 1201.744 0 0 1-.9934 5.6447 132.71 132.71 0 0 1-.1674.9048l-.0531.2842.2065-.2023c.8881-.8696 2.104-1.3685 3.336-1.3685 1.3061 0 2.3176.4155 3.0064 1.2347zm18.5883 1.8299c-.3913-.4696-.963-.7073-1.6985-.7073-1.8025 0-3.1528 1.4294-3.6117 3.8234-.173.9011-.3464 2.5535.4322 3.4959.359.4346.8735.6548 1.5295.6548 1.8344 0 3.3606-1.615 3.799-4.019.265-1.4538.1094-2.5772-.4505-3.2478zM152 8.8145v1.6982c0 .1107-.0522.1808-.0952.22-.06.0542-.141.084-.2281.084a.3803.3803 0 0 1-.0956-.0122 3.0739 3.0739 0 0 0-.7837-.0989c-1.9117 0-4.2623 2.128-4.3612 2.2187l-.0528.0482.034.0625s3.8944 7.128 4.2329 7.7543a.2973.2973 0 0 1-.006.3c-.055.0921-.1514.1492-.2515.1492h-2.3652c-.4922 0-.524-.0586-.7324-.4407l-.1393-.2545c-.7998-1.464-2.1659-3.9642-3.0224-5.5395l-.0543-.0998-.582.5044c-.2442.2108-.3852.3327-.6006.5256l-.023.0212s-.3391 1.942-.4768 2.734c-.1838 1.057-.323 1.8577-.3776 2.1556-.0476.258-.2709.3937-.4671.3937h-2.2387c-.0861 0-.1698-.0404-.2296-.1113-.0594-.0716-.085-.1608-.07-.2457l.4191-2.3555-.1856.1401c-2.3327 1.7698-4.2957 2.8669-6.8701 2.8669-2.1665 0-3.8362-.7176-4.5814-1.9697l-.0628-.1055-.0831.0913c-.0176.0197-1.8293 1.987-4.0373 1.987-1.0695 0-2.0992-.2079-2.3855-1.7128l-.0334-.1738-.1219.1277c-1.1277 1.182-2.3912 1.7558-3.8635 1.7558-1.4968 0-2.7067-.7386-3.236-1.9754l-.0503-.118-.0946.087c-1.0003.9163-2.5656 2.0094-4.3442 2.0094-1.2578 0-2.1786-.3373-2.7364-1.0021-.5384-.6415-.7273-1.6039-.532-2.7103l1.0861-6.1574c.0555-.316.1007-.5472.1007-.5475l.0218-.1082h-1.935c-.0762 0-.1584-.0416-.2145-.1077a.309.309 0 0 1-.0688-.2554c.0625-.3749.2135-1.2326.2138-1.2326.0373-.2145.2663-.3585.4568-.3585h1.8847l.7868-4.4562c.0397-.2238.2375-.3927.4601-.3927h2.239c.0892 0 .1738.0409.2332.1122.0577.0685.0834.1565.0695.235-.091.5087-.7731 4.395-.7731 4.395l-.0185.1067h3.09a.304.304 0 0 1 .235.1092c.0568.0682.0832.1565.069.2365-.038.2136-.2054 1.1926-.2054 1.1926-.0507.287-.2833.4159-.4917.4159h-3.0382l-1.1828 6.6787c-.1071.609-.024 1.0813.2472 1.4043.2171.2593.5577.408.9332.408 1.4556 0 2.4495-.6922 3.07-1.213l.0398-.033-.0082-.051c-.1292-.792-.2354-1.5884-.1143-2.622.3915-3.3449 2.3463-6.9196 6.6584-6.9196 1.9739 0 2.6779 1.2299 2.7989 1.4765l.1213.2472.1756-.9548c.0303-.199.2436-.3773.448-.3773h2.0018c.09 0 .1723.0385.2308.1082.0585.0701.085.1641.0692.2506l-1.4814 8.4203c-.134.7598-.104 1.1883.1007 1.4319.135.161.3418.236.6512.236 1.1244 0 1.9481-1.1332 1.9827-1.1814l.0252-.0355-.0115-.0419c-.2324-.8356-.2685-2.2077-.0856-3.2623.6758-3.8965 3.2266-6.3175 6.657-6.3175 1.6539 0 2.9423.5056 3.7257 1.4616.8071.9851.9139 2.24.7446 3.0858-.0567.2833-.3294.5135-.608.5135h-2.0204a.3077.3077 0 0 1-.2341-.1058c-.0574-.0652-.0853-.1505-.0753-.2284l.0713-.5463c.0707-.5335-.0425-.9872-.3263-1.3115-.2991-.3409-.7665-.5213-1.3516-.5213-1.7176 0-3.1831 1.5932-3.6472 3.965-.249 1.2745-.0877 2.2706.4804 2.9606.5757.6988 1.5611 1.0534 2.9293 1.0534 2.6079 0 4.408-.9463 6.3075-2.3673l.0286-.0215 2.42-13.719c.048-.2591.2369-.4205.4926-.4205l2.2132.0012a.303.303 0 0 1 .2323.1077c.0595.071.0831.1638.0658.2603-.1337.7625-.3272 1.8544-.5529 3.1297a3409.2952 3409.2952 0 0 0-1.2557 7.117l-.0515.2946.2068-.216c.8314-.8674 2.3561-2.4583 4.1529-3.8031 1.3924-1.0428 2.5128-1.2617 3.2074-1.2617.6997 0 1.1013.2638 1.1013.7236zM43.9274 4.7327c.107-.6066.2584-1.4592.3158-1.7698.0148-.081-.0107-.1705-.068-.2393a.3047.3047 0 0 0-.2344-.112h-8.7319c-3.7533 0-5.4628 2.3495-5.4628 4.5326 0 .2127.0176.738.1826 1.0146.095.1601.24.2481.4077.2481.043 0 .088-.0058.1334-.0173.206-.051.5475-.1383.9057-.2293l.4088-.1043c.0583-.0149.2478-.078.2478-.2703 0-1.2101.569-2.6524 3.2806-2.6524h1.4222l-2.8032 15.8953c-.0148.085.0107.1744.0707.2457.0595.071.1426.1113.229.1113h2.239c.1962 0 .4195-.1353.4668-.3931l2.7934-15.8592h3.7367c.2257 0 .4195-.1689.4601-.4006zM16.0174.1828c-.242-.2426-.6227-.2444-.8662-.0012-.1535.1547-.1996.2053-.299.3042-1.2185 1.2196-1.0874 2.7422-.0941 3.7355.5007.5017.3415 1.1168-.0625 1.4343-.5839.459-2.7291 2.124-3.6269 2.8205-2.1786-1.5666-5.1543-1.5354-7.293.1085-.3821.2924-.349.799-.0752 1.0725.0659.0646 10.5747 10.5747 10.64 10.639.2738.2742.7794.3072 1.0727-.0743 1.643-2.1386 1.6752-5.114.1086-7.2926.696-.8978 2.3618-3.0443 2.8204-3.627.3176-.4049.957-.5398 1.4331-.0624.9946.9936 2.5172 1.1243 3.7355-.095.0998-.0985.1499-.1446.3042-.299.2433-.2439.2427-.623 0-.8666L16.0174.1828zM6.7569 14.7826L9.21 17.2373s-3.4608 2.652-7.5803 5.8983c-.5797.4568-1.3448 1.0416-1.5773.8086-.2325-.2326.3577-.9639.816-1.5595 2.7072-3.5184 5.8885-7.602 5.8885-7.602z"/></svg>