<svg xmlns="http://www.w3.org/2000/svg" width="80" height="55" viewBox="0 0 21.1667 14.5521">
  <path fill="#00009a" d="M0 0h21.1667v14.552H0z" paint-order="stroke fill markers"/>
  <path fill="#fff" d="M7.2669 4.7867L6.0165 8.1625l-.1313-.6415c.0018.0045.0038.009.0055.0135l-.4311-2.107c-.0974-.3788-.4081-.6343-.8302-.6398H2.6492l-.0204.092c.5394.133 1.0485.3626 1.5006.6519l1.131 4.2188h1.3502l2.0066-4.9631H7.2669zm1.8648 0l-.7985 4.9687h1.2762l.798-4.9687zm3.9598.0065c-1.2603 0-2.1477.6554-2.1532 1.5925-.0104.6916.6354 1.0753 1.1186 1.3055.4937.2361.6617.3893.6617.5991-.0054.3222-.3992.4707-.7666.4707-.509 0-.7824-.0765-1.1975-.256l-.168-.0765-.1786 1.0803c.2998.1332.8511.2505 1.4234.2565 1.3393 0 2.2109-.6452 2.2218-1.644.0044-.5479-.3362-.9675-1.072-1.3106-.446-.2202-.7194-.3689-.7194-.5941.0055-.2048.2313-.4146.7354-.4146.4146-.0104.7193.087.9505.184l.1159.0516.1735-1.0396c-.2521-.0974-.6518-.2048-1.1455-.2048zm3.4298.009c-.3042 0-.5354.0874-.6672.3997l-1.8956 4.5535h1.3394l.3688-.9858h1.4984l.1915.9898h1.1813l-1.0291-4.9572zm.031 1.3632l.3888 1.6093h-.903c.026.0025.5141-1.6093.5141-1.6093z"/>
</svg>